HIERARCHY
ROOT Hips
{
	OFFSET 0.000000 0.000000 0.000000 
	CHANNELS 6 Xposition Yposition Zposition Yrotation Zrotation Xrotation 
	JOINT Lumbar
	{
		OFFSET 0.000000 0.000000 0.000000 
		CHANNELS 3 Zrotation Xrotation Yrotation
		JOINT Neck
		{
			OFFSET 0.000000 0.445665 0.000000 
			CHANNELS 3 Zrotation Xrotation Yrotation
			End Site
			{
				OFFSET 0.000000 0.227535 0.000000 
			}
		}
		JOINT RightShoulder
		{
			OFFSET 0.019635 0.377685 0.194865 
			CHANNELS 3 Zrotation Xrotation Yrotation
			JOINT RightElbow
			{
				OFFSET 0.000000 -0.243375 0.000000 
				CHANNELS 2 Zrotation Yrotation
				JOINT RightWrist
				{
					OFFSET 0.000000 -0.264825 0.000000 
					CHANNELS 2 Zrotation Xrotation
					End Site
					{
						OFFSET 0.006600 -0.176220 0.000990 
					}
				}
			}
		}
		JOINT LeftShoulder
		{
			OFFSET 0.019635 0.377685 -0.194865 
			CHANNELS 3 Zrotation Xrotation Yrotation
			JOINT LeftElbow
			{
				OFFSET 0.000000 -0.243375 0.000000 
				CHANNELS 2 Zrotation Yrotation
				JOINT LeftWrist
				{
					OFFSET 0.000000 -0.264825 0.000000 
					CHANNELS 2 Zrotation Xrotation
					End Site
					{
						OFFSET 0.006600 -0.176220 -0.000990 
					}
				}
			}
		}
	}
	JOINT RightHip
	{
		OFFSET 0.052140 -0.069960 0.075570 
		CHANNELS 3 Zrotation Xrotation Yrotation
		JOINT RightKnee
		{
			OFFSET 0.000000 -0.402270 0.000000 
			CHANNELS 1 Zrotation
			JOINT RightAnkle
			{
				OFFSET 0.000000 -0.404085 0.000000 
				CHANNELS 3 Zrotation Xrotation Yrotation
				End Site
				{
					OFFSET 0.204105 -0.089430 0.008415 
				}
			}
		}
	}
	JOINT LeftHip
	{
		OFFSET 0.052140 -0.069960 -0.075570 
		CHANNELS 3 Zrotation Xrotation Yrotation
		JOINT LeftKnee
		{
			OFFSET 0.000000 -0.402270 0.000000 
			CHANNELS 1 Zrotation
			JOINT LeftAnkle
			{
				OFFSET 0.000000 -0.404085 0.000000 
				CHANNELS 3 Zrotation Xrotation Yrotation
				End Site
				{
					OFFSET 0.204105 -0.089430 -0.008415 
				}
			}
		}
	}
}
MOTION
Frames: 14
Frame Time: 0.02
0 0.95578 -0 180.59781 0 -4.97069 7.12834 4.08508 -1.70015 -22.19535 4.4488 1.89508 5.58872 -71.16554 -78.70913 24.37182 62.36954 -29.12834 -1.24192 21.44341 65.67775 59.82175 19.49427 -82.16651 -23.04529 3.91247 0.59914 9.05784 -5.47269 -10.53093 8.02692 -7.69803 -11.51845 0.29355 1.77372 -0.45842 -6.63946 4.81595 6.00529 10.07298
-0.00032 0.95577 9e-05 180.52273 0 -4.96834 7.09599 4.08915 -1.62971 -22.06187 4.22478 1.79979 5.5515 -70.84089 -78.7903 24.37657 62.35781 -29.05577 -1.31332 21.52722 65.96444 59.53777 19.42899 -82.11643 -23.09016 3.85347 0.56417 9.04847 -5.43516 -10.48048 7.93787 -7.65854 -11.48035 0.25397 1.76926 -0.39847 -6.61526 4.82894 6.01388 10.07245
-0.00065 0.95575 0.00018 180.44761 0 -4.96583 7.06358 4.09322 -1.55899 -21.9285 4.00104 1.70444 5.51355 -70.51685 -78.87125 24.38148 62.34744 -28.98341 -1.38413 21.61013 66.25119 59.2546 19.36404 -82.06516 -23.13529 3.79489 0.52925 9.03924 -5.39378 -10.42985 7.84717 -7.61819 -11.4462 0.21427 1.76463 -0.33831 -6.59086 4.84185 6.02239 10.07171
-0.00097 0.95573 0.00027 180.37203 0 -4.9627 7.03066 4.09732 -1.48612 -21.79437 3.7755 1.60731 5.47257 -70.19093 -78.95238 24.38716 62.34298 -28.91136 -1.45337 21.69168 66.54221 58.97087 19.29937 -82.00875 -23.18223 3.73759 0.49411 9.03137 -5.32792 -10.37744 7.74821 -7.57335 -11.43738 0.17391 1.75931 -0.27689 -6.56532 4.85431 6.03054 10.07018
-0.00129 0.95571 0.00036 180.29939 0 -4.96293 7.00048 4.10125 -1.42422 -21.66438 3.55864 1.51888 5.44791 -69.8736 -79.03287 24.38885 62.30797 -28.83787 -1.53101 21.78213 66.81211 58.68885 19.23274 -81.97969 -23.21996 3.67371 0.45999 9.01735 -5.38132 -10.33379 7.69207 -7.55149 -11.30622 0.13726 1.75771 -0.22235 -6.54568 4.86886 6.04048 10.07289
-0.00162 0.95568 0.00045 180.22028 0 -4.95598 6.96451 4.10554 -1.33948 -21.5257 3.32421 1.41264 5.38859 -69.53935 -79.11445 24.39895 62.33708 -28.76739 -1.59076 21.85252 67.12539 58.40437 19.17064 -81.89273 -23.2769 3.62368 0.42385 9.01561 -5.18948 -10.27212 7.54607 -7.48163 -11.42591 0.09268 1.7482 -0.15317 -6.51367 4.87914 6.0467 10.06659
-0.00199 0.95562 0.00056 180.12327 0 -4.92878 6.91134 4.11102 -1.18436 -21.35889 3.0279 1.24818 5.22972 -69.13955 -79.20318 24.43373 62.55489 -28.70445 -1.60136 21.87779 67.58034 58.09703 19.11695 -81.63848 -23.39241 3.61323 0.38001 9.05551 -4.22883 -10.15309 7.13286 -7.26711 -12.33724 0.02524 1.71619 -0.04131 -6.44464 4.8763 6.04161 10.03454
-0.00238 0.95554 0.00068 180.0197 0 -4.8944 6.85252 4.11686 -1.00736 -21.18399 2.71596 1.06717 5.03643 -68.7257 -79.2925 24.47681 62.8355 -28.64474 -1.5939 21.88139 68.0756 57.78957 19.06846 -81.32707 -23.52639 3.61658 0.33442 9.10654 -3.03521 -10.01704 6.63177 -7.00599 -13.48605 -0.05008 1.67629 0.08495 -6.36362 4.86941 6.03293 9.99355
-0.00277 0.95547 0.00079 179.9189 0 -4.86354 6.79696 4.12241 -0.84494 -21.0151 2.41949 0.89947 4.8611 -68.33005 -79.37881 24.5152 63.0801 -28.58382 -1.59448 21.88766 68.53875 57.49252 19.0203 -81.04597 -23.6485 3.61265 0.29105 9.14736 -2.00802 -9.89367 6.18302 -6.77394 -14.46126 -0.12127 1.64041 0.20348 -6.28981 4.86524 6.02653 9.95709
-0.00314 0.9554 0.00091 179.81864 0 -4.83157 6.73837 4.12844 -0.66298 -20.83588 2.08776 0.70754 4.67579 -67.8846 -79.47608 24.5574 63.35628 -28.52129 -1.59556 21.92236 69.05995 57.15276 18.96106 -80.74566 -23.78537 3.61271 0.24193 9.20946 -0.73014 -9.74981 5.68281 -6.50912 -15.70782 -0.19484 1.60271 0.32747 -6.20842 4.85729 6.01742 9.91847
-0.00356 0.95533 0.00102 179.71618 0 -4.80022 6.6849 4.13364 -0.51652 -20.67688 1.82573 0.56193 4.50337 -67.5395 -79.55141 24.59368 63.58153 -28.46353 -1.59155 21.89503 69.46991 56.90075 18.92577 -80.473 -23.89575 3.60808 0.20404 9.23044 0.08693 -9.64411 5.26785 -6.30084 -16.45281 -0.26523 1.5669 0.44291 -6.14016 4.85634 6.01306 9.88247
-0.00412 0.95525 0.00108 179.60507 0 -4.77216 6.64572 4.13566 -0.47337 -20.5703 1.76018 0.55014 4.37239 -67.47519 -79.55945 24.61121 63.65172 -28.41254 -1.57578 21.68124 69.56218 56.90105 18.95875 -80.28016 -23.92952 3.58428 0.20041 9.13033 -0.47688 -9.65227 5.11881 -6.2656 -15.69262 -0.32568 1.53859 0.53652 -6.1093 4.87499 6.02298 9.85363
-0.00474 0.95517 0.00113 179.49276 0 -4.74501 6.61213 4.13702 -0.46674 -20.48527 1.76528 0.58521 4.25602 -67.51233 -79.54643 24.62258 63.66858 -28.36716 -1.5559 21.40931 69.54114 56.98782 19.01516 -80.11913 -23.93574 3.55581 0.20762 8.98934 -1.50306 -9.69869 5.05701 -6.28788 -14.43074 -0.38255 1.5124 0.62004 -6.09237 4.90095 6.03774 9.82812
-0.00535 0.9551 0.00118 179.38375 0 -4.71753 6.57683 4.13917 -0.44344 -20.39401 1.73784 0.59758 4.13467 -67.50283 -79.54754 24.63704 63.70888 -28.32306 -1.53927 21.17776 69.57253 57.02847 19.05847 -79.95036 -23.95391 3.53136 0.20799 8.87025 -2.28351 -9.72466 4.94916 -6.28011 -13.43969 -0.44054 1.48501 0.70473 -6.07028 4.924 6.05006 9.8026
